<?xml version="1.0" encoding="UTF-8"?>
<svg id="Capa_1" data-name="Capa 1" xmlns="http://www.w3.org/2000/svg" viewBox="0 0 296.4321377958 135.48">
  <defs>
    <style>
      .cls-1 {
        fill: #0073e6;
      }
    </style>
  </defs>
  <path class="cls-1" d="m71.4835833758,90.6419468915h-9.3306399696c-.3702619556,0-.7030529226-.2258956399-.8397360214-.5700055734l-17.307535611-43.5730165482h1.6309083145c5.9488308173,0,10.5097459454,1.6962940209,12.5261054241,7.2929789813l7.9550935835,22.03636027c.2868790267.796272466,1.412944298.7964326073,1.7000497941.0002417696,0,0,4.9553510246-13.812891093,7.9848566223-22.2166020396,2.2879708573-6.3467272527,7.0812082636-7.1129795137,13.8277449762-7.1129789813h.000011235s-17.3071195939,43.5730096688-17.3071195939,43.5730096688c-.1366812766.3441135629-.4694740979.5700124528-.839738754.5700124528Z"/>
  <path class="cls-1" d="m116.6402050481,64.2489155679c-6.1024998881-8.3557036098-21.050192721-7.6615210599-28.3688346584-1.1421893404l4.9392989915,6.1736003754c3.8507464979-4.0288549036,14.426949198-5.4825866224,15.5521241672,1.5437141122-36.6849744562-3.4476001454-19.9291052478,33.3678011406.6231693767,16.5158464232v.0000033021c-.0000000036,1.8236754233,1.4783810296,3.3020564553,3.3020564525,3.3020564543l6.0205197401-.0000000032c-.5264541979-5.3422270873,1.587056145-22.0935551137-2.0683340695-26.3930313236Zm-8.2729175869,16.6383659084c-9.2170668508,9.9182569905-18.7261582336-5.9675121066.4630723645-3.7661265091-.0542139691.6996948994.2473957232,3.2835226678-.4630723645,3.7661265091Z"/>
  <path class="cls-1" d="m135.0073465381,90.6419468915h-10.4337823911v-41.330880093c0-2.8829454954,2.3370890907-5.2200345858,5.220034586-5.2200345855l5.2137478004.0000000005.0000000047,46.550914678Z"/>
  <path class="cls-1" d="m146.4907875349,55.5129256165c-1.6467121246,0-3.0463964959-.5451358216-4.1982157317-1.6362448469-1.1530753092-1.0902716431-1.7287755816-2.4388756994-1.7287755816-4.0437187132,0-1.6458747423.5757002724-3.0145759717,1.7287755816-4.1056849971,1.1518192359-1.0902716431,2.5515036072-1.6362448469,4.1982157317-1.6362448469,1.6869064708,0,3.0962207376.5459732038,4.2287801826,1.6362448469,1.1317220627,1.0911090253,1.6977924396,2.4598102547,1.6977924396,4.1056849971,0,1.6048430138-.5660703769,2.9534470701-1.6977924396,4.0437187132-1.1325594449,1.0911090253-2.5418737117,1.6362448469-4.2287801826,1.6362448469Zm5.2474556463,35.129021275h-10.433782391v-31.4868273336h5.3525733262c2.8062742772,0,5.0812090649,2.2749347876,5.0812090649,5.0812090649v26.4056182688Z"/>
  <path class="cls-1" d="m186.5272872772,64.2489155679c-1.3791685071-1.995900508-3.2934242491-3.5086314782-5.7410924617-4.5377742197-2.449342977-1.0287240504-5.2997920347-1.5437141122-8.5513471731-1.5437141122-2.7574996319,0-5.3818554918.4429751914-7.8713928151,1.3272508098-2.4903747055.8859503828-4.558708775,2.089687316-6.2050022085,3.6120481817l4.9397176826,6.1736003754c1.1112061985-1.0697557789,2.4074738663-1.8924838045,3.8888030035-2.4694401502,1.4821665194-.5761189635,3.0455591137-.8641784452,4.6926899293-.8641784452,2.1805432862,0,3.8988515901.4936368154,5.1549249117,1.4817478283,1.0305558239.8109000018,1.6311158808,1.9464949573,1.8157063227,3.3955848793h-5.7363298504c-3.2515551384,0-6.0710210542.4224593271-8.4575603651,1.2652845259-2.3882140754.8440812721-4.2195689782,2.0277210321-5.4949020907,3.5500818978-1.2761704947,1.5231982479-1.9142557421,3.355390533-1.9142557421,5.4949020907,0,2.0988985203.5141526796,3.9310908054,1.5432954211,5.4944833996,1.0283053592,1.5646486676,2.4794887367,2.788901465,4.3527127503,3.6735957744,1.8723866313.8846943095,4.0227841578,1.3272508098,6.4520299617,1.3272508098,2.5515036072,0,4.7848019729-.535087235,6.6982203327-1.6052617049,1.2509966919-.6991094762,2.297881469-1.606884133,3.179540268-2.6841763518v.0000033017c.0000000162,1.8235019828,1.478240427,3.301742431,3.3017424173,3.3017424315l6.0208337753.0000000016v-19.0152753239c0-2.922045237-.6891655624-5.3810181095-2.0683340695-7.3777559997Zm-8.2724988958,16.6383659084c-.6791169759.9876923218-1.5541813899,1.7702260012-2.6243558598,2.3459262736-1.07017447.5769563457-2.2433469523.8645971363-3.5186800648.8645971363-1.3180396054,0-2.398262662-.3089940371-3.2415065518-.9261447291-.8440812721-.6175693831-1.2652845259-1.4402974087-1.2652845259-2.4694401502,0-1.07017447.5242012662-1.9343529152,1.574278563-2.5933727179,1.0492399146-.6577637294,2.5004232921-.9876923219,4.3527127503-.9876923219h5.1859080536v2.9886694595c-.1367026465.2670202536-.2904669556.5264517309-.4630723645.7774570497Z"/>
  <path class="cls-1" d="m226.1940827719,90.6419468915h-10.4337823911v-18.2130631625c0-1.9339342241-.4320892226-3.3742316328-1.2962676678-4.3213109173-.8641784452-.9466605933-2.0373509276-1.4202002356-3.5186800648-1.4202002356-1.0299801237,0-2.0072051678.2780108952-2.9333498969.8336139944s-1.6772765754,1.410151649-2.2533955389,2.5619708849c-.5769563457,1.1526566181-.8641784452,2.675854866-.8641784452,4.5687573616v15.9902320745h-10.433782391v-31.4868273336h10.3718161072v9.9401455757h-1.1731724823c.2880594817-2.9634956567,1.0082081861-5.226521091,2.1612834953-6.7911697585,1.1514005448-1.5638112853,2.5004232921-2.644453033,4.0437187132-3.2415065518,1.5432954211-.5962161366,3.0145759717-.8951615872,4.4146790342-.8951615872,3.6627098057,0,6.5642391784,1.1325594449,8.7045881184,3.3955848793,2.1403489399,2.2642815077,3.2105234099,5.5363525103,3.2105234099,9.8166316991v19.2623030771Z"/>
  <path class="cls-1" d="m248.3579152219,82.245515428c-1.152237927,0-1.9552874706-.2361417845-2.4074738663-.7101001178-.453023778-.47270226-.6791169759-1.3058975633-.6791169759-2.5004232921v-11.6065361823h6.9762312279v-8.273336278h-6.9762312279v-7.7788620804h-10.433782391v7.7788620804h-4.8777513987v8.273336278h4.8777513987v13.6438871098c0,3.2519738295.781277606,5.6598663869,2.3463449647,7.2236776723,1.5633925942,1.5646486676,3.9708664605,2.3459262736,7.2232589812,2.3459262736h8.1494037102v-8.3964314635h-4.1986344228Z"/>
</svg>